<?xml version="1.0" standalone="no"?>
<!DOCTYPE svg PUBLIC "-//W3C//DTD SVG 20010904//EN"
 "http://www.w3.org/TR/2001/REC-SVG-20010904/DTD/svg10.dtd">
<svg version="1.0" xmlns="http://www.w3.org/2000/svg"
 width="996.000000pt" height="603.000000pt" viewBox="0 0 996.000000 603.000000"
 preserveAspectRatio="xMidYMid meet">
<metadata>
Created by potrace 1.12, written by Peter Selinger 2001-2015
</metadata>
<g transform="translate(0.000000,603.000000) scale(0.100000,-0.100000)"
fill="#000000" stroke="none">
<path d="M467 5930 c-113 -19 -232 -101 -290 -201 -96 -164 -63 -388 76 -516
246 -227 640 -91 697 240 39 220 -121 440 -345 477 -67 11 -70 11 -138 0z
m173 -83 c0 -2 -11 -31 -25 -65 -28 -69 -29 -72 -16 -72 8 0 20 26 52 109 6
16 13 21 19 15 7 -7 1 -32 -15 -72 -28 -69 -29 -72 -16 -72 5 0 19 26 31 58
24 60 36 79 45 71 3 -3 -6 -34 -20 -69 -27 -70 -29 -80 -16 -80 5 0 19 27 31
60 21 56 36 78 46 68 7 -8 -67 -183 -88 -205 -11 -12 -29 -23 -40 -25 -15 -2
-27 -23 -48 -79 l-28 -76 36 -103 c29 -84 33 -103 21 -111 -33 -21 -46 -10
-66 59 l-19 67 -24 -62 c-23 -64 -44 -79 -69 -49 -9 10 -2 34 29 103 22 50 40
95 40 100 0 5 -24 86 -54 179 -67 211 -72 234 -54 234 18 0 61 -46 82 -87 15
-29 40 -159 35 -179 -4 -15 12 -74 20 -74 5 0 16 20 25 44 16 42 16 46 0 71
-16 25 -16 29 1 83 26 83 62 162 74 162 6 0 11 -1 11 -3z"/>
</g>
</svg>
